# xmcd
# 
# Track frame offsets:
#     150
#     11240
#     29685
#     42043
#     53805
#     64253
#     77323
#     92415
#     101993
#     116780
#     127213
# 
# Disc length: 1953
# 
# Revision: 3
# Processed by: cddbd v1.5.2PL0 Copyright (c) Steve Scherf et al.
# Submitted via: fre:ac v1.0.17
# 
DISCID=94079f0b
DTITLE=Aretha Franklin - I Never Loved A Man The Way I Love You
DYEAR=1967
DGENRE=Soul
TTITLE0=Respect
TTITLE1=Drown In My Own Tears
TTITLE2=I Never Loved A Man (The Way I Love You)
TTITLE3=Soul Serenade
TTITLE4=Don't Let Me Lose This Dream
TTITLE5=Baby, Baby, Baby
TTITLE6=Dr Feelgood (Love Is A Serious Business)
TTITLE7=Good Times
TTITLE8=Do Right Woman - Do Right Man
TTITLE9=Save Me
TTITLE10=A Change Is Gonna Come
EXTD=
EXTT0=
EXTT1=
EXTT2=
EXTT3=
EXTT4=
EXTT5=
EXTT6=
EXTT7=
EXTT8=
EXTT9=
EXTT10=
PLAYORDER=
